<svg xmlns="http://www.w3.org/2000/svg" width="636.336" height="397.639" viewBox="0 0 636.336 397.639">
  <g id="undraw_barber_3uel" transform="translate(0.01 -0.031)">
    <path id="Path_223" data-name="Path 223" d="M664.326,410.956a100.122,100.122,0,0,0-42.274-82,102.748,102.748,0,0,0,.556-10.441c0-55.145-44.076-99.849-98.453-99.849A96.94,96.94,0,0,0,476.369,231.2c-38.486-25.32-88.73-40.644-143.7-40.644-89.437,0-166.369,40.577-200.5,98.759-1.9-.111-3.8-.172-5.729-.172-54.366,0-98.453,44.7-98.453,99.849a100.417,100.417,0,0,0,16.2,54.895h0c0,49.616,46.829,89.832,104.572,89.832h418.91c45.355,0,82.122-31.577,82.122-70.536h0A100.412,100.412,0,0,0,664.326,410.956Z" transform="translate(-28 -136.052)" fill="#f763ff" opacity="0.1"/>
    <path id="Path_224" data-name="Path 224" d="M812.971,231.3a97.473,97.473,0,0,0-12.3,5.879c-1.774,1.057-3.477,2.225-5.3,3.187a65.945,65.945,0,0,1-6.118,2.681,136.388,136.388,0,0,0-16.6,8.132c.462-5.979-.411-12.476-3.988-17.138a15.024,15.024,0,0,0-1.747-1.925c-2.531-2.347-6.119-2.954-8.605-5.006,1.513-2.659,4.873-5.073,7.159-7.1q3.7-3.276,7.687-6.213a109.446,109.446,0,0,1,16.882-10.251,39.28,39.28,0,0,1,11.837-4.049,2.569,2.569,0,0,1,1.563.139,2.644,2.644,0,0,1,1.035,1.874c.773,3.588,1.168,7.27,1.813,10.885a46.427,46.427,0,0,0,1.285,5.5,67.154,67.154,0,0,0,2.4,6.291Q811.475,227.735,812.971,231.3Z" transform="translate(-352.092 -139.987)" fill="#fbbebe"/>
    <path id="Path_225" data-name="Path 225" d="M586.655,411.043A35.043,35.043,0,1,1,551.612,376,35.041,35.041,0,0,1,586.655,411.043Z" transform="translate(-244.816 -218.344)" fill="#be6f72"/>
    <path id="Path_226" data-name="Path 226" d="M556.121,477.905a57.068,57.068,0,0,1,4.967,10.012,18.942,18.942,0,0,1,.679,11.019c11.937-6.285,26.143-5.779,39.281-8.961a1.414,1.414,0,0,0,.907-.479,1.442,1.442,0,0,0,0-1.157,96.17,96.17,0,0,1-3.132-31.26l-6.858,4.055a87.769,87.769,0,0,1-9.317,5.006,116.448,116.448,0,0,1-14.078,4.578c-3.749,1.112-11.191,2.553-13.55,5.829a6.619,6.619,0,0,1,1.1,1.357Z" transform="translate(-261.879 -254.325)" fill="#be6f72"/>
    <path id="Path_227" data-name="Path 227" d="M514.992,380.477c-2.281.918-4.962,1.975-7.059.69a5.183,5.183,0,0,1-2.08-4.734,21.436,21.436,0,0,1,1.329-5.245c1.112-3.543,1.713-7.231,2.954-10.758s3.265-6.925,6.48-8.788c5.918-3.426,13.578-.6,20.147-2.492,2.781-.8,5.2-2.4,7.787-3.654s5.5-2.225,8.288-1.552c3.271.762,5.685,3.515,8.733,4.917,3.337,1.535,7.331,1.429,10.368,3.482,2.153,1.457,3.51,3.81,4.717,6.119a116.149,116.149,0,0,1,9.095,23.306,35.347,35.347,0,0,1,1.485,8.9c.028,3.86-1.018,7.643-2.052,11.369l-1.669,5.9a27.032,27.032,0,0,1-2.42,6.463,8.857,8.857,0,0,1-5.2,4.294,6.409,6.409,0,0,1-7.231-3.276,13.039,13.039,0,0,1-.751-5.234,58.244,58.244,0,0,0-1.113-10.346,9.879,9.879,0,0,0-1.969-4.772c-1.5-1.669-3.894-2.225-6.118-2.264-2.6-.033-5.457.673-6.975,2.781-1.218,1.7-1.43,4.094-3.048,5.423a5.046,5.046,0,0,1-2.475,1.007,8.271,8.271,0,0,1-8.75-5.256c-.512-1.468-.762-3.293-2.153-3.983a14.374,14.374,0,0,0-2.358-.528c-2.37-.718-2.993-3.721-3.21-6.185-.25-2.887.712-8.588-2.876-8.783C523,377.062,518.546,379.293,514.992,380.477Z" transform="translate(-240.056 -204.021)" fill="#3f3d56"/>
    <path id="Path_228" data-name="Path 228" d="M528.716,465.456c-1.235.6-2.586,1.29-3.07,2.57-.189.5-.223,1.051-.395,1.563-.784,2.264-3.843,2.709-5.423,4.511a7.1,7.1,0,0,0-1.4,3.12,22.628,22.628,0,0,0,.979,13.483,10.88,10.88,0,0,0,2.225,3.671c2.826,2.881,7.7,2.826,11.219.862s5.952-5.407,8.015-8.9a30.962,30.962,0,0,0,2.731-5.562,33.939,33.939,0,0,0,1.352-6.057c1.235-8.015,2.848-16.9,2.292-25.03-1.669-.106-4.856-.223-6.33.823-1.847,1.313-1.335,3.96-2,5.879C537.332,461.006,532.748,463.442,528.716,465.456Z" transform="translate(-245.375 -251.014)" fill="#3f3d56"/>
    <path id="Path_229" data-name="Path 229" d="M530.681,471.128c-2.086.128-5.824-2.18-7.915-2.064A65.15,65.15,0,0,1,519,461.355c1.113-1.6,2.9-1.986,5.612,0C526.787,462.885,529.791,468.174,530.681,471.128Z" transform="translate(-245.894 -255.624)" fill="#3f3d56"/>
    <path id="Path_230" data-name="Path 230" d="M573.791,319.658c-2.264,1.2-3.666,1.252-4.784,1.012s-3.337.873-3.337.873c-19.607,6.708-20.38,9.873-20.38,9.873l22.7-8.015c4.366-1.913,4.45-1.24,4.45-1.24,3.337,3.137,7.587,1.012,7.587,1.012s5.88-2.781,4.149-5.457S576.061,318.484,573.791,319.658Zm9.456-.5s-1.669,4.45-7.67,3.727c0,0-2.948-.434-1.7-2.631,0,0,6.119-2.57,7.737-2.386s1.619,1.313,1.619,1.313Z" transform="translate(-257.561 -192.039)" fill="#e8e8f0"/>
    <path id="Path_231" data-name="Path 231" d="M573.791,319.658c-2.264,1.2-3.666,1.252-4.784,1.012s-3.337.873-3.337.873c-19.607,6.708-20.38,9.873-20.38,9.873l22.7-8.015c4.366-1.913,4.45-1.24,4.45-1.24,3.337,3.137,7.587,1.012,7.587,1.012s5.88-2.781,4.149-5.457S576.061,318.484,573.791,319.658Zm9.456-.5s-1.669,4.45-7.67,3.727c0,0-2.948-.434-1.7-2.631,0,0,6.119-2.57,7.737-2.386s1.619,1.313,1.619,1.313Z" transform="translate(-257.561 -192.039)" opacity="0.1"/>
    <path id="Path_232" data-name="Path 232" d="M577.8,299.7c-3.393.111-4.1,2.648-4.1,2.648a4.889,4.889,0,0,0-.317,5.857l-6.024,5.991a6.058,6.058,0,0,0-2.814,2.225s-13.227,11.681-13.032,12.743c0,0,2.158,1.112,15.847-11.364l3.593-3.182s.8-5.946,6.408-7.075c0,0,.556.245.851-1.079a6.306,6.306,0,0,1,1.24-1.708C580.193,304.065,581.189,299.581,577.8,299.7Zm.951,4.021s-1.819,4.695-4.411,3.337-.072-4.489-.072-4.489c4.494-4.372,4.483,1.151,4.483,1.151Z" transform="translate(-260.32 -184.483)" fill="#e8e8f0"/>
    <circle id="Ellipse_29" data-name="Ellipse 29" cx="0.718" cy="0.718" r="0.718" transform="translate(306.435 130.612)" opacity="0.1"/>
    <path id="Path_233" data-name="Path 233" d="M643.216,283.1a47.377,47.377,0,0,0-6.5-2.826,43.287,43.287,0,0,0-9.105-1.557q-14.607-1.391-29.3-1.613a14.928,14.928,0,0,0-5.14.556,10.965,10.965,0,0,0-3.894,2.553,19.385,19.385,0,0,0-4.45,6.441,2.859,2.859,0,0,0-.278,1.991c.223.645,1.112,1.074,1.619.618a8.293,8.293,0,0,0-2.715,8.922,5.067,5.067,0,0,0-2.709,4.172,26.526,26.526,0,0,0,12.159-.59,2.162,2.162,0,0,0-2.47,2.019,3.3,3.3,0,0,0,1.841,2.92,7.394,7.394,0,0,0,3.538.7c4.711,0,9.295-1.6,13.995-1.8,3.593-.161,7.3.49,10.73-.556,3.983-1.235,7.537-4.734,11.642-4,3.276.584,5.412,3.627,7.548,6.174,3.415,4.066,7.637,7.359,11.826,10.624,3.226,2.514,6.6,5.095,10.6,5.946a5.885,5.885,0,0,0,3.627-.172,6.19,6.19,0,0,0,2.358-2.225c4.311-6.118,4.316-13.822,4.066-20.992-.128-3.666-.929-4.161-4.322-5.679q-5.907-2.653-11.77-5.435Q649.629,286.255,643.216,283.1Z" transform="translate(-273.293 -174.455)" fill="#fbbebe"/>
    <path id="Path_234" data-name="Path 234" d="M749.4,310.181a11.726,11.726,0,0,1-2.091.985,6.775,6.775,0,0,1-3.643-.629c-5.006-1.669-10.568-1.274-15.408-3.337a35.043,35.043,0,0,1-5.779,26.06c-1,1.424-2.32,2.881-4.055,2.992.773,2.375,3.154,3.81,5.412,4.878A58.1,58.1,0,0,0,735.09,345.1c1.112.261,2.47.389,3.115-.556.389-.556.556-1.507,1.24-1.474,1.046,1.112.7,3.393,2.147,3.894a2.782,2.782,0,0,0,1.374,0l3.226-.556a5.914,5.914,0,0,0,2.714-.934,5.316,5.316,0,0,0,1.24-1.58c3.616-6.158,5.006-13.283,5.562-20.319a74.773,74.773,0,0,0,.373-10.7C755.86,309.87,752.011,308.963,749.4,310.181Z" transform="translate(-334.391 -187.813)" fill="#e8e8f0"/>
    <path id="Path_235" data-name="Path 235" d="M749.4,310.181a11.726,11.726,0,0,1-2.091.985,6.775,6.775,0,0,1-3.643-.629c-5.006-1.669-10.568-1.274-15.408-3.337a35.043,35.043,0,0,1-5.779,26.06c-1,1.424-2.32,2.881-4.055,2.992.773,2.375,3.154,3.81,5.412,4.878A58.1,58.1,0,0,0,735.09,345.1c1.112.261,2.47.389,3.115-.556.389-.556.556-1.507,1.24-1.474,1.046,1.112.7,3.393,2.147,3.894a2.782,2.782,0,0,0,1.374,0l3.226-.556a5.914,5.914,0,0,0,2.714-.934,5.316,5.316,0,0,0,1.24-1.58c3.616-6.158,5.006-13.283,5.562-20.319a74.773,74.773,0,0,0,.373-10.7C755.86,309.87,752.011,308.963,749.4,310.181Z" transform="translate(-334.391 -187.813)" opacity="0.1"/>
    <path id="Path_236" data-name="Path 236" d="M403.537,629.9c-1.585-2.036-3.215-4.194-5.562-5.267a15.229,15.229,0,0,0-4.227-1.035,208.6,208.6,0,0,0-23.568-2.486c-2.581-.072-5.351,0-7.453,1.508-2.409,1.719-3.337,4.884-3.471,7.837a22.1,22.1,0,0,0,8.522,18.356c4.728,3.6,10.7,5.112,16.531,6.3q4.6.943,9.239,1.669a60.256,60.256,0,0,1,9.228,1.813c6.386,2.047,12.02,6.675,18.717,7.059a1.474,1.474,0,0,0,.918-.156,1.558,1.558,0,0,0,.556-.946c1.474-5.2,6.586-17.655,0-21.293-3.443-1.9-7.264-1.98-10.635-4.388A44.247,44.247,0,0,1,403.537,629.9Z" transform="translate(-174.997 -327.11)" fill="#be6f72"/>
    <path id="Path_237" data-name="Path 237" d="M323.028,675.766C318.7,671.994,312.716,670,309.567,665.2a25.214,25.214,0,0,1-2.781-7.031l-2.047-7.353a3.831,3.831,0,0,1-.211-1.407c.156-1.535,1.963-2.264,3.488-2.5,7.787-1.213,15.9,1.924,21.726,7.231s9.573,12.627,11.77,20.214a1.9,1.9,0,0,1,.067,1.212,1.87,1.87,0,0,1-.857.812c-2.814,1.669-6.6,4.1-9.884,4.611S325.37,677.779,323.028,675.766Z" transform="translate(-150.717 -338.447)" fill="#be6f72"/>
    <path id="Path_238" data-name="Path 238" d="M655.039,641.7l22.805,9.128a9.718,9.718,0,0,1,5.846,11.269l-16.971,71.381H624.29l7.387-81.21S647.808,638.915,655.039,641.7Z" transform="translate(-292.619 -336.082)" fill="#3f3d56"/>
    <path id="Path_239" data-name="Path 239" d="M521.8,568.825a5.885,5.885,0,0,0-.951,2.842,11,11,0,0,1,.323,1.763c-.089,1.168-1.441,1.819-2.609,1.83a21.694,21.694,0,0,0-3.493-.167c-1.891.323-3.171,2.064-4.806,3.07-2.28,1.4-5.128,1.318-7.787,1.557-5.562.5-10.824,2.587-15.858,4.962-3.421,1.613-7.053,3.682-8.343,7.231-1.852,5.006,1.741,10.279,2.536,15.575a29.9,29.9,0,0,1,.156,5.373c-.584,18.7-1.591,37.618-2.659,56.3L274.42,669.4,284.46,651.8c9.79-17.16,19.841-34.642,34.609-47.764a31.1,31.1,0,0,1,7.309-4.917l11.842,10.569a11.913,11.913,0,0,0,3.254,2.3c2.225.907,4.717.389,7.1.467,4.589.15,8.783,2.492,12.765,4.778a73.283,73.283,0,0,1,8.41,5.334c1.569,1.2,3.833,1.953,5.468,3.059l-.384-19.969a16.7,16.7,0,0,1,.473-5.368c1.046-3.337,4.033-5.7,5.468-8.872.651-1.43.968-2.987,1.513-4.45a30.321,30.321,0,0,1,2.859-5.368l7.381-11.859c1.824-2.926,3.643-5.852,5.624-8.672,8.661-12.354,20.319-22.249,31.661-32.178a13.25,13.25,0,0,1,1.863-8.1,12.438,12.438,0,0,0,1.435-2.609,10.882,10.882,0,0,0,.206-3.337v-.857a7.754,7.754,0,0,1,2.147-4.85,14.749,14.749,0,0,1,4.756-2.942,155.361,155.361,0,0,1,27.534-9.334,8.9,8.9,0,0,1,4.589-.239c.451,1.452,1.986,1.963,3.521,2.331l.984.228a16.486,16.486,0,0,1,7.086,3.46,26.41,26.41,0,0,1,5.073,6.87c10.83,18.595,15.819,42.991,32.573,56.5C522.394,566.656,522.227,567.936,521.8,568.825Z" transform="translate(-137.358 -271.778)" fill="#f763ff"/>
    <path id="Path_240" data-name="Path 240" d="M804.87,208.654c-5.863,12.888-17.416,25.587-32.5,25.587a36.724,36.724,0,0,1-3.688-.184,15.012,15.012,0,0,0-1.747-1.925c-2.531-2.347-6.119-2.954-8.6-5.006,1.513-2.659,4.872-5.073,7.159-7.1q3.7-3.276,7.687-6.213a109.448,109.448,0,0,1,16.882-10.251,39.286,39.286,0,0,1,11.837-4.049,2.569,2.569,0,0,1,1.563.139,2.644,2.644,0,0,1,1.035,1.874C805.265,205.083,804.225,205.039,804.87,208.654Z" transform="translate(-352.101 -139.996)" opacity="0.1"/>
    <circle id="Ellipse_30" data-name="Ellipse 30" cx="37.268" cy="37.268" r="37.268" transform="translate(383.001 18.592)" fill="#fbbebe"/>
    <path id="Path_241" data-name="Path 241" d="M841,336.75a67.734,67.734,0,0,1-3.159,13.233c-.556,1.563-1.24,3.087-1.947,4.589a88.264,88.264,0,0,0-7.5,27.934,15.426,15.426,0,0,1-.417,2.253c-.818,3.115-2.542,5.9-3.86,8.827a71.855,71.855,0,0,0-3.337,9.751,5.438,5.438,0,0,0-.311,2.62,9.749,9.749,0,0,0,1.363,2.52c2.47,4.255-.384,9.456-1.346,14.273-.328,1.669-.473,3.482-1.557,4.784a7.954,7.954,0,0,1-3.721,2.091,421.226,421.226,0,0,1-59.484,15.486c-3.009.556-6.119,1.074-9.106.517s-5.963-2.4-6.986-5.284a14.45,14.45,0,0,1-.439-5.251c.111-3.716,0-7.454-.2-11.2-.645-12.321-2.108-24.686,1.113-36.489.962-3.482,2.319-6.842,3.41-10.285,2.13-6.714,2.681-13.655,3.215-20.62a117.715,117.715,0,0,1,2.153-17.165c.957-4.222.323-8.61.267-12.938a48.722,48.722,0,0,1,8.343-27.812,17.513,17.513,0,0,0,2.526-4.45c.712-2.336.222-4.845-.1-7.27a51.035,51.035,0,0,1,.968-18.528,18.91,18.91,0,0,1,2.564-6.391,21.459,21.459,0,0,1,5.356-4.978,140.725,140.725,0,0,1,37.729-19.329c1.24,3.137,2.431,6.8,3.382,10.012.128.434.217.985-.139,1.263s-.723.128-1.112.139a2,2,0,0,0-1.719,1.474,3.636,3.636,0,0,0,.211,2.358c.757,1.947,2.386,3.4,3.955,4.772l7.887,6.881a19.3,19.3,0,0,0,3.076,2.347c.99.556,2.069.951,3.087,1.463,4.083,2.064,6.9,6.085,8.477,10.379s.862,9.456,2.915,13.533C843.367,305.778,843.312,321.77,841,336.75Z" transform="translate(-343.119 -156.944)" fill="#e8e8f0"/>
    <path id="Path_242" data-name="Path 242" d="M895.648,670.08a59.638,59.638,0,0,1-.172,29.4,11.7,11.7,0,0,0-.623,5.24c.206.99.69,1.919.8,2.926a8.562,8.562,0,0,1-.295,2.725c-2.47,11.681-1.585,23.818-.589,35.738-.423,0-.557.195-1,.195H883.049c-.189-3.131-4.083-5.479-5.985-7.976a20.647,20.647,0,0,1-3.543-17.349c1.669-6.675,6.586-12.009,9.106-18.389,2.781-7.02,2.542-14.968,5.5-21.91C889.819,676.666,892.989,673.534,895.648,670.08Z" transform="translate(-402.953 -348.847)" fill="#3f3d56"/>
    <path id="Path_243" data-name="Path 243" d="M895.648,670.08a59.638,59.638,0,0,1-.172,29.4,11.7,11.7,0,0,0-.623,5.24c.206.99.69,1.919.8,2.926a8.562,8.562,0,0,1-.295,2.725c-2.47,11.681-1.585,23.818-.589,35.738-.423,0-.557.195-1,.195H883.049c-.189-3.131-4.083-5.479-5.985-7.976a20.647,20.647,0,0,1-3.543-17.349c1.669-6.675,6.586-12.009,9.106-18.389,2.781-7.02,2.542-14.968,5.5-21.91C889.819,676.666,892.989,673.534,895.648,670.08Z" transform="translate(-402.953 -348.847)" opacity="0.1"/>
    <path id="Path_244" data-name="Path 244" d="M815.584,573.607c-9.111-1.457-17.938,3.132-26.738,5.918-13.444,4.255-28.245,4.517-40.666,11.2a10.386,10.386,0,0,0-2.97,2.147,8.5,8.5,0,0,0-1.83,4.35,15.437,15.437,0,0,0,1.93,10.207,35.553,35.553,0,0,1,2.347,3.927c1.424,3.338.473,7.187.228,10.835-.556,8.149,2.6,16.081,3.237,24.224.378,4.8-.117,9.706,1.013,14.39.706,2.937,2.036,5.707,2.586,8.677s.311,5.874.5,8.811c.517,8.416,4.35,16.592,3.415,24.975l72.31.239c-2.681-9.328-4.912-18.973-2.481-28.368a66.867,66.867,0,0,1,3.137-8.705c4.044-9.773,8.2-19.574,10.429-29.909s2.431-21.37-1.346-31.249c-4.205-11.013-13.144-20.175-15.091-31.8C822.254,573.029,818.927,574.141,815.584,573.607Z" transform="translate(-345.383 -305.912)" fill="#3f3d56"/>
    <path id="Path_245" data-name="Path 245" d="M720.516,130.272c-.7-1.468-2.687-2.436-4.022-1.507s-1.162,3-1.491,4.672c-.634,3.282-3.893,5.518-7.231,6.041a5.64,5.64,0,0,1-4.517-.862,6.286,6.286,0,0,1-1.669-2.72c-3.337-8.9-1.307-19.29,4.155-27.055A19.041,19.041,0,0,1,710,104.29c4.6-3.337,10.752-3.337,16.442-3.159a7.787,7.787,0,0,0,3.421-.395,9.457,9.457,0,0,0,2.27-1.669c5.39-4.739,12.838-6.73,20.024-6.413s14.1,2.781,20.486,6.057a31.373,31.373,0,0,1,8.438,5.807c5.746,5.913,7.148,14.673,8.277,22.839,1.213,8.811,2.419,17.866.378,26.527-1.157,4.906-3.337,9.7-3.081,14.735a118.969,118.969,0,0,1-14.062,3.109c-2.225.35-4.795.556-6.424-1.018a6.363,6.363,0,0,1-1.469-2.6c-1.763-5.212-1.174-11.164-3.838-15.981a13.406,13.406,0,0,0-11-6.775c-1.747-.061-3.732.367-4.628,1.863a11.5,11.5,0,0,0-.79,2.292,6.821,6.821,0,0,1-9.623,3.488c-1.669-1.046-2.809-2.781-4.317-4.083-1.913-1.641-4.366-2.486-6.513-3.81C716.839,140.668,723.286,136.085,720.516,130.272Z" transform="translate(-326.202 -92.59)" fill="#3f3d56"/>
    <path id="Path_246" data-name="Path 246" d="M602.641,498.963c-3.043.973-5.813,2.737-8.772,3.977-5.212,2.175-10.941,2.681-16.409,4.072a67.407,67.407,0,0,0-15.079,6.074c-.35.189-1.452,1.112-2.331,1.747v-.857a7.754,7.754,0,0,1,2.147-4.85,14.748,14.748,0,0,1,4.756-2.943,155.349,155.349,0,0,1,27.556-9.317,8.9,8.9,0,0,1,4.589-.239C599.57,498.078,601.106,498.59,602.641,498.963Z" transform="translate(-264.111 -271.778)" fill="#3f3d56"/>
    <path id="Path_247" data-name="Path 247" d="M479.046,745.888c5.985,6.675,11.353,13.961,18.317,19.591-8.038-10.674-19.568-17.8-29.992-25.848-2.114-1.635-6.341-3.955-7.62-6.319-2.019-3.7,2.442-1.074,4.294-.067C469.829,736.388,474.68,741.027,479.046,745.888Z" transform="translate(-219.373 -376.057)" opacity="0.1"/>
    <path id="Path_248" data-name="Path 248" d="M818.177,371.083A27.123,27.123,0,0,1,816.091,378a82.447,82.447,0,0,1-7.971,16c-2.314,3.4-5.067,6.469-7.481,9.79a112.367,112.367,0,0,0-6.808,10.974q-5.69,10.079-11.091,20.325a69.073,69.073,0,0,1-5.646,9.523,65.613,65.613,0,0,1-5.006,5.7c-3.894,4.1-7.893,7.9-11.375,12.348-1.724,2.225-4.6,3.082-7.287,3.838a9.91,9.91,0,0,1-2.781.5,9.6,9.6,0,0,1-2.781-.617,70.476,70.476,0,0,1-8.788-3.337c-.645-12.321-2.108-24.686,1.112-36.489.962-3.482,2.32-6.842,3.41-10.285,2.13-6.714,2.681-13.655,3.215-20.62.662-1.4,1.368-2.781,2.053-4.127,4.639-9.167,8.549-19.262,7.342-29.48a55.079,55.079,0,0,1-.64-5.562,20.959,20.959,0,0,1,1.14-6.714,37.123,37.123,0,0,1,21.137-22.806,11.83,11.83,0,0,1,5.006-1.112c2.225.117,4.355,1.274,6.525.851a41.694,41.694,0,0,1,17.738,15.435c4.444,6.686,4.689,15.619,9.523,22.027A9.821,9.821,0,0,1,818.177,371.083Z" transform="translate(-343.159 -196.089)" opacity="0.1"/>
    <path id="Path_249" data-name="Path 249" d="M555,259.906l-.234-.506-9.089,4.194-1.519.7-1.513.7,12.816,27.784,1.513-.7,1.519-.7,9.089-4.194-.234-.5-9.089,4.194-.234-.506,9.089-4.194-.234-.506-9.089,4.194-.234-.506,9.089-4.194-.228-.506-9.094,4.194-.234-.5,9.094-4.194-.234-.506-9.094,4.194-.234-.506,9.094-4.194-.234-.506-9.089,4.194-.234-.506,9.089-4.194-.234-.5-9.089,4.194-.234-.506,9.089-4.194-.234-.506-9.089,4.194-.234-.506,9.094-4.194-.234-.506L555,283.8l-.234-.5,9.094-4.2-.234-.5-9.094,4.194-.228-.506,9.089-4.194-.234-.506-9.089,4.194-.233-.506,9.089-4.194-.234-.506-9.089,4.194-.234-.5,9.089-4.194-.228-.506-9.094,4.194-.234-.506L562,275.058l-.233-.506-9.094,4.194-.228-.506,9.089-4.188-.234-.506-9.089,4.194-.234-.506,9.089-4.194-.234-.506-9.089,4.194-.234-.506,9.089-4.194-.228-.506-9.094,4.2-.234-.506,9.094-4.194-.234-.506-9.094,4.194-.234-.506,9.094-4.194-.234-.506-9.089,4.194-.234-.506,9.089-4.194-.234-.5-9.089,4.194-.234-.506,9.089-4.194-.234-.506-9.089,4.194-.234-.506,9.094-4.194-.234-.5-9.094,4.188-.234-.5,9.094-4.194-.234-.506-9.094,4.194-.228-.506,9.089-4.194-.234-.506-9.089,4.194-.234-.506,9.089-4.194-.234-.5-9.089,4.194-.234-.506,9.089-4.194-.228-.506-9.094,4.194-.234-.506,9.095-4.194-.234-.506-9.094,4.194-.234-.5,9.094-4.194-.234-.506-9.094,4.194-.228-.506Z" transform="translate(-240.815 -115.099)"/>
    <path id="Path_250" data-name="Path 250" d="M582.815,421.188a8.975,8.975,0,0,1-5.2,4.294,6.409,6.409,0,0,1-7.231-3.276,13.04,13.04,0,0,1-.751-5.234,58.265,58.265,0,0,0-1.112-10.346,9.878,9.878,0,0,0-1.969-4.772c-1.5-1.669-3.893-2.225-6.119-2.264-2.6-.033-5.456.673-6.975,2.781-1.218,1.7-1.43,4.094-3.048,5.423a5.046,5.046,0,0,1-2.475,1.007,8.271,8.271,0,0,1-8.749-5.256c-.512-1.469-.762-3.293-2.153-3.983a14.36,14.36,0,0,0-2.358-.528c-2.369-.718-2.992-3.721-3.209-6.185-.25-2.887.712-8.588-2.875-8.783-3.838-.211-8.294,2.019-11.848,3.2-2.28.918-4.961,1.975-7.059.69a5.182,5.182,0,0,1-2.08-4.734,21.425,21.425,0,0,1,1.329-5.245c.934-2.915,1.5-5.941,2.353-8.9a26.431,26.431,0,0,0-1.074,2.57c-1.235,3.51-1.813,7.231-2.948,10.757a20.944,20.944,0,0,0-1.329,5.245,5.22,5.22,0,0,0,2.08,4.733c2.1,1.285,4.778.228,7.059-.69,3.554-1.185,8.01-3.415,11.848-3.2,3.588.195,2.625,5.9,2.876,8.783.217,2.464.84,5.468,3.21,6.185a14.361,14.361,0,0,1,2.359.528c1.39.69,1.668,2.514,2.153,3.983a8.271,8.271,0,0,0,8.75,5.256,5.046,5.046,0,0,0,2.475-1.007c1.618-1.329,1.83-3.721,3.048-5.423,1.518-2.119,4.372-2.826,6.975-2.781,2.225.033,4.645.59,6.119,2.264a9.879,9.879,0,0,1,1.969,4.772,58.254,58.254,0,0,1,1.113,10.346,12.946,12.946,0,0,0,.751,5.234,6.406,6.406,0,0,0,7.231,3.276,8.99,8.99,0,0,0,5.2-4.294,22.242,22.242,0,0,0,2.047-5.14C583.071,420.732,582.949,420.96,582.815,421.188Z" transform="translate(-240.092 -215.273)" opacity="0.1"/>
    <path id="Path_251" data-name="Path 251" d="M643.927,419.25a179.953,179.953,0,0,1-12.465-13.717,114.39,114.39,0,0,1-10.746-14.089c-1.908-3.12-3.61-6.525-6.541-8.711-2.225-1.669-4.945-2.447-7.4-3.721-1.769-.918-3.4-2.08-5.145-3.032A24.475,24.475,0,0,0,589.2,373.05c-1.8.061-3.838.478-4.761,2.025-.317.528-.467,1.146-.79,1.669-1,1.669-3.393,2.142-4.211,3.894-1.379,2.948,2.781,5.657,3.043,8.9.122,1.624-.773,3.137-1.034,4.745-.445,2.781,1,5.434,2.386,7.859,2.976,5.2,6.6,10.886,12.443,12.193,2.069.462,4.255.311,6.274.968a14.836,14.836,0,0,1,4.45,2.653,72.868,72.868,0,0,1,14.373,15.135c1.88,2.653,3.582,5.423,5.479,8.06a65.523,65.523,0,0,0,23.123,19.88l6.825-21.693c1.051-3.337,1.88-7.915-1.112-10.518C651.936,425.441,647.614,422.777,643.927,419.25Z" transform="translate(-272.59 -217.029)" fill="#fbbebe"/>
    <path id="Path_252" data-name="Path 252" d="M768.462,321.741c-2.169.417-4.322-.734-6.525-.851A11.8,11.8,0,0,0,756.931,322a37.144,37.144,0,0,0-21.137,22.806,21.17,21.17,0,0,0-1.124,6.736c.034,1.863.423,3.7.64,5.562,1.207,10.2-2.7,20.3-7.337,29.48-2.564,5.067-5.457,10.413-4.85,16.058a3.132,3.132,0,0,1-.261,2.225c-.556.734-1.758.773-2.275,1.546s-.044,1.941-.456,2.815c-.556,1.235-2.37,1.085-3.666.645a29.481,29.481,0,0,1-9.7-5.507c-4.622,2.7-9.567,5.913-11.086,11.041a24.506,24.506,0,0,0-.74,3.994l-2.386,19.913c-.317,2.637-.473,5.729,1.518,7.487,3.432,3.037,9.545-.9,13.216,1.852a11.233,11.233,0,0,1,2.225,2.7c4.01,5.5,10.913,7.921,17.388,10.012a9.771,9.771,0,0,0,2.781.612,9.456,9.456,0,0,0,2.781-.5c2.692-.757,5.562-1.635,7.287-3.832,3.487-4.45,7.487-8.243,11.38-12.348a67.448,67.448,0,0,0,5.006-5.7,68.921,68.921,0,0,0,5.646-9.528q5.39-10.246,11.08-20.325a112.27,112.27,0,0,1,6.87-10.924c2.42-3.337,5.167-6.4,7.481-9.79a85.37,85.37,0,0,0,7.971-16,27.291,27.291,0,0,0,2.092-6.919,9.577,9.577,0,0,0-1.557-6.9c-4.834-6.413-5.073-15.341-9.517-22.027A41.652,41.652,0,0,0,768.462,321.741Z" transform="translate(-322.83 -193.888)" fill="#e8e8f0"/>
    <path id="Path_253" data-name="Path 253" d="M590.941,355.978a1.052,1.052,0,0,0-.479.751c0,.278.228.5.35.745.339.712-.206,1.535-.829,2.025s-1.379.868-1.719,1.585a.557.557,0,0,0-.067.312.668.668,0,0,0,.245.367,3.031,3.031,0,0,0,1.374.9,3.442,3.442,0,0,0,2.392-.845A12.946,12.946,0,0,1,594.7,360.6a2.434,2.434,0,0,0,.751-.373,1.669,1.669,0,0,0,.484-1.035,5.587,5.587,0,0,0-1.407-3.894C593.505,353.931,591.814,355.227,590.941,355.978Z" transform="translate(-276.602 -208.891)" fill="#3f3d56"/>
    <rect id="Rectangle_36" data-name="Rectangle 36" width="66.537" height="34.08" rx="1.54" transform="translate(170.502 282.069) rotate(27.04)" fill="#3f3d56"/>
    <rect id="Rectangle_37" data-name="Rectangle 37" width="55.924" height="27.801" transform="translate(173.876 287.245) rotate(27.04)" fill="#e8e8f0"/>
    <ellipse id="Ellipse_31" data-name="Ellipse 31" cx="0.606" cy="0.918" rx="0.606" ry="0.918" transform="translate(164.55 298.78) rotate(-62.96)" fill="#e6e8ec"/>
    <ellipse id="Ellipse_32" data-name="Ellipse 32" cx="0.996" cy="1.513" rx="0.996" ry="1.513" transform="translate(217.783 326.46) rotate(-62.96)" fill="#e6e8ec"/>
    <g id="Group_10" data-name="Group 10" transform="translate(373.771 31.916)" opacity="0.1">
      <path id="Path_254" data-name="Path 254" d="M806.083,185.815c-1.157,4.906-3.337,9.7-3.081,14.735a118.975,118.975,0,0,1-14.062,3.109c-2.225.35-4.795.556-6.424-1.018a6.364,6.364,0,0,1-1.469-2.6c-1.763-5.212-1.173-11.164-3.838-15.981a13.405,13.405,0,0,0-11-6.775c-1.746-.061-3.732.367-4.628,1.863a11.491,11.491,0,0,0-.79,2.292,6.821,6.821,0,0,1-9.623,3.488c-1.669-1.046-2.809-2.781-4.316-4.083-1.914-1.641-4.366-2.486-6.513-3.81a6.8,6.8,0,0,1-3.26-3.632c-.49,2.676-.629,5.134,3.26,7.526,2.147,1.324,4.6,2.169,6.513,3.81,1.507,1.29,2.625,3.037,4.316,4.083a6.827,6.827,0,0,0,9.623-3.488,11.506,11.506,0,0,1,.79-2.292c.9-1.5,2.881-1.925,4.628-1.863a13.405,13.405,0,0,1,11,6.775c2.664,4.817,2.075,10.769,3.838,15.981a6.365,6.365,0,0,0,1.491,2.62c1.63,1.557,4.205,1.368,6.424,1.018a118.968,118.968,0,0,0,14.062-3.109c-.272-5.034,1.925-9.829,3.082-14.735a46.723,46.723,0,0,0,1.062-12.237A42.918,42.918,0,0,1,806.083,185.815Z" transform="translate(-716.333 -160.353)"/>
      <path id="Path_255" data-name="Path 255" d="M721.06,157.267a8.7,8.7,0,0,0-.556-5.451c-.7-1.469-2.687-2.436-4.022-1.507s-1.146,3-1.474,4.672c-.634,3.282-3.894,5.518-7.231,6.041a5.64,5.64,0,0,1-4.517-.862,6.285,6.285,0,0,1-1.669-2.72,25.835,25.835,0,0,1-1.541-7.2,26.5,26.5,0,0,0,1.541,11.091,6.285,6.285,0,0,0,1.669,2.72,5.64,5.64,0,0,0,4.517.862c3.3-.523,6.575-2.781,7.231-6.041.317-1.669.1-3.688,1.48-4.645s3.337.039,4.021,1.507A7.526,7.526,0,0,1,721.06,157.267Z" transform="translate(-699.977 -149.944)"/>
    </g>
  </g>
</svg>
