<svg id="instagram" xmlns="http://www.w3.org/2000/svg" width="59.152" height="59.152" viewBox="0 0 59.152 59.152">
  <path id="Path_283" data-name="Path 283" d="M218.322,212.661A5.661,5.661,0,1,1,212.661,207,5.661,5.661,0,0,1,218.322,212.661Zm0,0" transform="translate(-183.085 -183.085)" fill="#9715bf"/>
  <path id="Path_284" data-name="Path 284" d="M162.647,139.4a5.624,5.624,0,0,0-3.223-3.223,9.4,9.4,0,0,0-3.153-.584c-1.791-.082-2.328-.1-6.863-.1s-5.072.017-6.863.1a9.4,9.4,0,0,0-3.153.585,5.626,5.626,0,0,0-3.224,3.223,9.4,9.4,0,0,0-.584,3.154c-.082,1.791-.1,2.328-.1,6.863s.018,5.072.1,6.863a9.4,9.4,0,0,0,.584,3.153,5.624,5.624,0,0,0,3.223,3.223,9.385,9.385,0,0,0,3.154.585c1.791.082,2.327.1,6.862.1s5.073-.017,6.863-.1a9.385,9.385,0,0,0,3.154-.585,5.624,5.624,0,0,0,3.223-3.223,9.4,9.4,0,0,0,.585-3.153c.082-1.791.1-2.328.1-6.863s-.017-5.072-.1-6.863a9.385,9.385,0,0,0-.585-3.154Zm-13.239,18.737a8.721,8.721,0,1,1,8.721-8.721A8.721,8.721,0,0,1,149.408,158.132Zm9.066-15.749a2.038,2.038,0,1,1,2.038-2.038A2.038,2.038,0,0,1,158.474,142.384Zm0,0" transform="translate(-119.832 -119.835)" fill="#790ABF"/>
  <path id="Path_285" data-name="Path 285" d="M29.576,0A29.576,29.576,0,1,0,59.152,29.576,29.579,29.579,0,0,0,29.576,0ZM46.457,36.578a12.46,12.46,0,0,1-.789,4.123A8.684,8.684,0,0,1,40.7,45.668a12.469,12.469,0,0,1-4.122.789c-1.811.083-2.39.1-7,.1s-5.191-.02-7-.1a12.469,12.469,0,0,1-4.122-.789A8.684,8.684,0,0,1,13.485,40.7a12.457,12.457,0,0,1-.789-4.122c-.083-1.812-.1-2.39-.1-7s.019-5.191.1-7a12.462,12.462,0,0,1,.789-4.123,8.69,8.69,0,0,1,4.967-4.967,12.472,12.472,0,0,1,4.123-.789c1.811-.083,2.39-.1,7-.1s5.191.02,7,.1a12.474,12.474,0,0,1,4.123.788,8.686,8.686,0,0,1,4.967,4.967,12.459,12.459,0,0,1,.79,4.123c.083,1.811.1,2.39.1,7S46.54,34.767,46.457,36.578Zm0,0" fill="#790ABF"/>
</svg>
