<svg id="Group_1" data-name="Group 1" xmlns="http://www.w3.org/2000/svg" xmlns:xlink="http://www.w3.org/1999/xlink" width="99.234" height="94.587" viewBox="0 0 99.234 94.587">
  <defs>
    <linearGradient id="linear-gradient" x1="-0.002" y1="0.5" x2="0.998" y2="0.5" gradientUnits="objectBoundingBox">
      <stop offset="0" stop-color="#b52cf3"/>
      <stop offset="1" stop-color="#e939b8"/>
    </linearGradient>
  </defs>
  <path id="Path_1" data-name="Path 1" d="M302.158,552.587c-6.571,0-11.816-4.15-14.525-9.222-3.8-7.205-2.94-17.35,6.283-22.768a34.977,34.977,0,0,1,17.58-4.669h3.516A13.483,13.483,0,0,0,328.73,502.5a1.146,1.146,0,0,0-1.1-1.153c-8.646,0-14.813-2.536-19.309-7.9-4.208-5.015-9.107-7.436-14.813-7.205a25.382,25.382,0,0,0,2.709,8.473c3.113,6.571,3.113,12.911.058,17.753a16.224,16.224,0,0,1-13.949,7.2c-7.09,0-12.854-5.13-14.41-12.8-1.787-8.876,2.536-20.52,16.427-26.4l.288-.115c.346-.115.692-.231,1.1-.346,0-1.556-.058-3.228-.058-5.13a16.248,16.248,0,0,1,8.07-14.007,20.745,20.745,0,0,1,20.174-.519l.231.115,43.23,30.78c5.879,3.17,9.4,8.761,9.4,14.986a16.927,16.927,0,0,1-9.453,15.044l-46.573,29.166-.115.058-.692.346A19.909,19.909,0,0,1,302.158,552.587Zm9.338-29.166a27,27,0,0,0-13.776,3.631c-5.418,3.228-5.649,8.761-3.458,12.854,1.96,3.689,6.34,6.974,12.277,4.15.115-.058.173-.115.288-.115L353.4,514.775l.115-.058a9.216,9.216,0,0,0,0-16.946l-.231-.115-43.172-30.722a13.084,13.084,0,0,0-12.623.4,8.83,8.83,0,0,0-4.5,7.608v3.862c8.07-.288,15.217,3.055,20.923,9.914,3.055,3.631,7.263,5.245,13.661,5.245h.058a8.674,8.674,0,0,1,8.473,8.646A20.961,20.961,0,0,1,314.9,523.594h-3.4C311.553,523.421,311.5,523.421,311.5,523.421Zm-25.419-35.679c-9.741,4.611-12.047,12.22-10.952,17.523.634,3.113,2.882,6.8,7.09,6.8a8.793,8.793,0,0,0,7.608-3.689c1.672-2.594,1.5-6.34-.519-10.548A33.413,33.413,0,0,1,286.076,487.742Z" transform="translate(-267.538 -457.999)" fill="url(#linear-gradient)"/>
</svg>
