<svg xmlns="http://www.w3.org/2000/svg" xmlns:xlink="http://www.w3.org/1999/xlink" width="545.493" height="164.266" viewBox="0 0 545.493 164.266">
  <defs>
    <linearGradient id="linear-gradient" y1="0.5" x2="1" y2="0.5" gradientUnits="objectBoundingBox">
      <stop offset="0" stop-color="#622a90"/>
      <stop offset="1" stop-color="#ba3095"/>
    </linearGradient>
  </defs>
  <g id="Group_3" data-name="Group 3" transform="translate(-267.253 -457.867)">
    <g id="Group_1" data-name="Group 1">
      <path id="Path_1" data-name="Path 1" d="M327.574,622.133c-11.368,0-20.517-7.219-25.172-15.952-6.648-12.475-5.053-30.066,10.857-39.55A60.4,60.4,0,0,1,343.8,558.5h6.037A23.371,23.371,0,0,0,373.6,535.129a2,2,0,0,0-1.921-1.994c-15.042-.015-25.7-4.38-33.548-13.732-7.3-8.708-15.777-12.851-25.707-12.544.686,5.284,2.033,9.11,4.663,14.668,5.407,11.426,5.438,22.371.09,30.818-4.947,7.813-14.005,12.478-24.228,12.478-12.257,0-22.31-8.919-25.016-22.194-3.145-15.432,4.434-35.575,28.452-45.788l.533-.2q.935-.3,1.862-.575c-.044-2.677-.052-5.625-.052-8.934,0-9.994,5.118-18.837,14.041-24.263a35.9,35.9,0,0,1,34.972-.893l.406.21,74.97,53.368c10.191,5.458,16.258,15.155,16.258,26.03,0,10.939-6.139,20.686-16.437,26.127l-80.814,50.6-.23.12c-.388.2-.777.393-1.169.579A30.631,30.631,0,0,1,327.574,622.133ZM343.808,571.5a47.229,47.229,0,0,0-23.892,6.3c-9.389,5.6-9.8,15.218-6.041,22.269,3.388,6.358,11,12.053,21.291,7.186q.258-.121.51-.249l80.794-50.584.235-.122c6.052-3.136,9.665-8.636,9.665-14.713s-3.613-11.576-9.665-14.712l-.406-.211L341.37,473.323a22.8,22.8,0,0,0-21.852.654,15.279,15.279,0,0,0-7.8,13.155c0,2.48.006,4.715.027,6.748,14-.529,26.356,5.268,36.337,17.169,5.27,6.284,12.568,9.086,23.665,9.086h.117A15.068,15.068,0,0,1,386.6,535.129,36.368,36.368,0,0,1,349.752,571.5h-5.944Zm-44.132-61.891c-16.938,7.962-20.881,21.242-19.009,30.429,1.108,5.438,4.988,11.789,12.277,11.789,5.743,0,10.694-2.4,13.244-6.432,2.88-4.549,2.576-11.049-.857-18.3A59.1,59.1,0,0,1,299.676,509.605Z" fill="url(#linear-gradient)"/>
    </g>
    <g id="Group_2" data-name="Group 2">
      <path id="Path_2" data-name="Path 2" d="M508.356,540.751c-2.474-2.119-6.486-3.717-12.26-4.884a35.984,35.984,0,0,1-6.018-1.667,5.731,5.731,0,0,1-2.481-1.58,3.19,3.19,0,0,1-.567-1.967,2.618,2.618,0,0,1,1.721-2.441,11.454,11.454,0,0,1,5.306-1.069,15.456,15.456,0,0,1,4.878.671,10.54,10.54,0,0,1,3.7,2.281,6.22,6.22,0,0,0,4.265,1.712,4.543,4.543,0,0,0,2.775-.84,4.021,4.021,0,0,0,1.666-3.143,4.868,4.868,0,0,0-1.218-3.076,16.269,16.269,0,0,0-6.631-4.731,24.5,24.5,0,0,0-9.284-1.68,23.4,23.4,0,0,0-7.986,1.359,14.524,14.524,0,0,0-6.232,4.191,10.46,10.46,0,0,0-2.458,7c0,6.687,5.213,11.082,15.5,13.063,3.624.686,6.2,1.524,7.662,2.49a3.647,3.647,0,0,1,1.922,3.1,3.394,3.394,0,0,1-1.924,3.043,12.272,12.272,0,0,1-6.251,1.31,15.3,15.3,0,0,1-5.816-1.112,10.9,10.9,0,0,1-4.028-2.572c-1.994-1.991-4.307-2.3-6.889-.4a4.527,4.527,0,0,0-1.929,3.782,4.213,4.213,0,0,0,1.287,3.077,19.811,19.811,0,0,0,7.564,4.442,30.544,30.544,0,0,0,10.117,1.661,22.977,22.977,0,0,0,9.313-1.729,13.775,13.775,0,0,0,6.047-4.871,12.293,12.293,0,0,0,2.079-6.939A10.7,10.7,0,0,0,508.356,540.751Z" fill="#0c022b"/>
      <path id="Path_3" data-name="Path 3" d="M547.546,521.183h0a22.609,22.609,0,0,0-11.312-2.845,22.982,22.982,0,0,0-11.426,2.844,20.241,20.241,0,0,0-7.875,7.916,24.828,24.828,0,0,0,0,22.916,20.237,20.237,0,0,0,7.875,7.917,24.308,24.308,0,0,0,22.815,0,20.331,20.331,0,0,0,7.835-7.915,24.675,24.675,0,0,0-.042-22.921A20.584,20.584,0,0,0,547.546,521.183Zm-11.313,32.709a12.544,12.544,0,0,1-6.487-1.7,12.019,12.019,0,0,1-4.486-4.7,14.324,14.324,0,0,1-1.638-6.9,14.556,14.556,0,0,1,1.641-6.945,11.969,11.969,0,0,1,4.483-4.734,13.259,13.259,0,0,1,12.973,0,11.7,11.7,0,0,1,4.441,4.727,14.834,14.834,0,0,1,1.606,6.952,14.606,14.606,0,0,1-1.6,6.911,11.753,11.753,0,0,1-4.443,4.692A12.541,12.541,0,0,1,536.233,553.892Z" fill="#0c022b"/>
      <path id="Path_4" data-name="Path 4" d="M570.467,534.24a6.057,6.057,0,0,0-4.416,1.862,6.148,6.148,0,0,0-1.86,4.492A6.271,6.271,0,0,0,574.928,545a6.335,6.335,0,0,0-4.461-10.76Z" fill="#0c022b"/>
      <path id="Path_5" data-name="Path 5" d="M596.744,511.717a7.876,7.876,0,0,1,6.146-2.506,5.016,5.016,0,0,0,3.459-1.249,4.427,4.427,0,0,0,0-6.536,5.019,5.019,0,0,0-3.458-1.249,18.832,18.832,0,0,0-9.482,2.387,16.683,16.683,0,0,0-6.5,6.746,21.029,21.029,0,0,0-2.3,9.988v.3h-2.289a4.664,4.664,0,0,0-3.278,1.183,4.144,4.144,0,0,0-1.315,3.181,3.967,3.967,0,0,0,1.315,3.028,4.661,4.661,0,0,0,3.278,1.184h2.289v28.819a4.726,4.726,0,0,0,1.413,3.548,4.647,4.647,0,0,0,3.334,1.352,5.006,5.006,0,0,0,3.688-1.363,4.8,4.8,0,0,0,1.363-3.537V528.174h6.8a4.668,4.668,0,0,0,3.278-1.184,3.968,3.968,0,0,0,1.315-3.028,4.15,4.15,0,0,0-1.315-3.182,4.672,4.672,0,0,0-3.278-1.182h-6.8v-1.065A9.6,9.6,0,0,1,596.744,511.717Z" fill="#0c022b"/>
      <path id="Path_6" data-name="Path 6" d="M638.2,521.265h0a21.838,21.838,0,0,0-11.17-2.928,22.247,22.247,0,0,0-11.241,2.924,21.2,21.2,0,0,0-7.98,8.02,22.653,22.653,0,0,0-2.882,11.312,23.921,23.921,0,0,0,2.676,11.286A20.4,20.4,0,0,0,615,559.872a20.092,20.092,0,0,0,24.259-2.512v.284a4.9,4.9,0,1,0,9.8,0V540.593a22.411,22.411,0,0,0-2.923-11.317A21.643,21.643,0,0,0,638.2,521.265Zm-11.171,5.954a12.084,12.084,0,0,1,10.893,6.506,14.4,14.4,0,0,1,1.641,6.868,14.172,14.172,0,0,1-1.639,6.827,12.5,12.5,0,0,1-17.3,4.742,12.579,12.579,0,0,1-4.537-4.75,13.933,13.933,0,0,1-1.671-6.819,14.149,14.149,0,0,1,1.674-6.861,12.519,12.519,0,0,1,4.534-4.785A12.2,12.2,0,0,1,627.03,527.219Z" fill="#0c022b"/>
      <path id="Path_7" data-name="Path 7" d="M665.679,536.1a6.168,6.168,0,0,0-8.832,0,6.148,6.148,0,0,0-1.859,4.492A6.27,6.27,0,0,0,665.724,545a6.307,6.307,0,0,0-.044-8.9Z" fill="#0c022b"/>
      <path id="Path_8" data-name="Path 8" d="M716.237,502.113a5.222,5.222,0,0,0-7.023-.01,4.735,4.735,0,0,0-1.413,3.547v18.1a20.3,20.3,0,0,0-24.26-2.512,20.4,20.4,0,0,0-7.394,7.992,23.92,23.92,0,0,0-2.677,11.287,22.633,22.633,0,0,0,2.883,11.312,21.181,21.181,0,0,0,7.979,8.02,22.251,22.251,0,0,0,11.241,2.923,21.627,21.627,0,0,0,19.1-10.938,22.417,22.417,0,0,0,2.923-11.317V505.65a4.811,4.811,0,0,0-1.362-3.536Zm-20.664,51.779a12.172,12.172,0,0,1-6.4-1.73,12.5,12.5,0,0,1-4.534-4.785,14.125,14.125,0,0,1-1.673-6.86,13.928,13.928,0,0,1,1.671-6.819,12.6,12.6,0,0,1,4.536-4.751,12.725,12.725,0,0,1,12.8,0,12.329,12.329,0,0,1,4.493,4.743,14.177,14.177,0,0,1,1.638,6.827,14.392,14.392,0,0,1-1.64,6.868,12.092,12.092,0,0,1-10.894,6.507Z" fill="#0c022b"/>
      <path id="Path_9" data-name="Path 9" d="M754.459,521.183a22.6,22.6,0,0,0-11.312-2.846,22.976,22.976,0,0,0-11.425,2.844,20.242,20.242,0,0,0-7.877,7.917,24.826,24.826,0,0,0,0,22.915,20.256,20.256,0,0,0,7.877,7.917,24.306,24.306,0,0,0,22.814,0,20.329,20.329,0,0,0,7.834-7.915,24.675,24.675,0,0,0-.04-22.921A20.583,20.583,0,0,0,754.459,521.183Zm-11.312,32.709a12.544,12.544,0,0,1-6.487-1.7,12.019,12.019,0,0,1-4.486-4.7,14.318,14.318,0,0,1-1.637-6.9,14.55,14.55,0,0,1,1.64-6.945,11.969,11.969,0,0,1,4.483-4.734,13.259,13.259,0,0,1,12.973,0,11.686,11.686,0,0,1,4.44,4.727,14.835,14.835,0,0,1,1.607,6.952,14.6,14.6,0,0,1-1.6,6.911,11.744,11.744,0,0,1-4.442,4.692A12.541,12.541,0,0,1,743.147,553.892Z" fill="#0c022b"/>
      <path id="Path_10" data-name="Path 10" d="M809.9,529.092a20.6,20.6,0,0,0-7.871-7.909h0a22.607,22.607,0,0,0-11.312-2.845,22.981,22.981,0,0,0-11.425,2.844,20.246,20.246,0,0,0-7.876,7.917,23.369,23.369,0,0,0-2.8,11.495,24.579,24.579,0,0,0,2.6,11.392,19.607,19.607,0,0,0,7.327,7.928,20.2,20.2,0,0,0,10.65,2.859,17.647,17.647,0,0,0,9.312-2.515,18.232,18.232,0,0,0,4.75-4.17v.486a16.662,16.662,0,0,1-1.719,7.829,12.007,12.007,0,0,1-4.515,4.881,12.267,12.267,0,0,1-6.3,1.658,16.214,16.214,0,0,1-6.7-1.325,12.506,12.506,0,0,1-4.816-3.786,4.749,4.749,0,0,0-3.93-2,4.961,4.961,0,0,0-2.722.875,4.283,4.283,0,0,0-2.024,3.565,4.448,4.448,0,0,0,1.057,2.763,22.508,22.508,0,0,0,8.318,6.519,25.335,25.335,0,0,0,10.664,2.27,22.26,22.26,0,0,0,11.48-3.006,20.958,20.958,0,0,0,7.9-8.224,23.942,23.942,0,0,0,2.8-11.485V540.593A23.139,23.139,0,0,0,809.9,529.092Zm-19.184-1.873a12.53,12.53,0,0,1,6.486,1.7,11.71,11.71,0,0,1,4.442,4.727,14.837,14.837,0,0,1,1.605,6.952,14.606,14.606,0,0,1-1.6,6.911,11.762,11.762,0,0,1-4.444,4.692,13.25,13.25,0,0,1-12.972,0,12.015,12.015,0,0,1-4.487-4.7,14.329,14.329,0,0,1-1.636-6.9,14.558,14.558,0,0,1,1.639-6.945,11.964,11.964,0,0,1,4.484-4.734A12.53,12.53,0,0,1,790.719,527.219Z" fill="#0c022b"/>
    </g>
  </g>
</svg>
