<svg id="undraw_verified_tw20" xmlns="http://www.w3.org/2000/svg" width="311.5" height="405.694" viewBox="0 0 311.5 405.694">
  <ellipse id="Ellipse_33" data-name="Ellipse 33" cx="148.037" cy="14.097" rx="148.037" ry="14.097" transform="translate(0 377.5)" fill="#e6e6e6"/>
  <path id="Path_271" data-name="Path 271" d="M476.831,197.713H474.68V138.77a34.115,34.115,0,0,0-34.115-34.115H315.686a34.115,34.115,0,0,0-34.115,34.115V462.138a34.115,34.115,0,0,0,34.115,34.115H440.565a34.115,34.115,0,0,0,34.115-34.115V239.67h2.151Z" transform="translate(-224.26 -104.655)" fill="#3f3d56"/>
  <path id="Path_272" data-name="Path 272" d="M474.032,145.243V468.135a25.478,25.478,0,0,1-25.477,25.478H323.076A25.478,25.478,0,0,1,297.6,468.135V145.243a25.478,25.478,0,0,1,25.477-25.478H338.3a12.11,12.11,0,0,0,11.208,16.675h71.542a12.11,12.11,0,0,0,11.208-16.675h16.3a25.478,25.478,0,0,1,25.478,25.477Z" transform="translate(-230.873 -110.89)" fill="#fff"/>
  <path id="Path_273" data-name="Path 273" d="M210.432,438.483h-2.639l.88-51.546h.879Z" transform="translate(-85.741 -159.66)" fill="#e6e6e6"/>
  <path id="Path_274" data-name="Path 274" d="M388.289,419.041l4.26-6.583a98.7,98.7,0,0,0-4.37-10.23l-2.754,2.225,2.181-3.37c-2.078-4.091-3.714-6.669-3.714-6.669s-8.543,13.462-11.4,27.715l5.466,8.448-6.051-4.888a39.932,39.932,0,0,0-.332,5.007c0,16.881,5.513,30.565,12.314,30.565s12.314-13.684,12.314-30.565a52.568,52.568,0,0,0-2.817-15.773Z" transform="translate(-261.399 -224.216)" fill="#e6e6e6"/>
  <path id="Path_275" data-name="Path 275" d="M327.391,438.483h-2.639l.88-51.546h.879Z" transform="translate(-134.001 -159.66)" fill="#e6e6e6"/>
  <path id="Path_276" data-name="Path 276" d="M505.248,419.041l4.26-6.583a98.661,98.661,0,0,0-4.37-10.23l-2.754,2.225,2.181-3.37c-2.078-4.091-3.714-6.669-3.714-6.669s-8.543,13.462-11.4,27.715l5.466,8.448-6.051-4.888a39.926,39.926,0,0,0-.332,5.007c0,16.881,5.513,30.565,12.314,30.565s12.314-13.684,12.314-30.565a52.567,52.567,0,0,0-2.817-15.773Z" transform="translate(-309.659 -224.216)" fill="#e6e6e6"/>
  <ellipse id="Ellipse_35" data-name="Ellipse 35" cx="24.247" cy="24.247" rx="24.247" ry="24.247" transform="translate(98.437 59.465)" fill="#e6e6e6"/>
  <path id="Path_277" data-name="Path 277" d="M262.221,387.254H256.78l1.814-106.283h1.813Z" transform="translate(-105.954 -115.935)" fill="#e6e6e6"/>
  <path id="Path_278" data-name="Path 278" d="M433.556,236.034l8.783-13.574a203.461,203.461,0,0,0-9.011-21.093l-5.679,4.587,4.5-6.95c-4.286-8.436-7.658-13.751-7.658-13.751s-17.614,27.757-23.5,57.146l11.27,17.418L399.782,249.74a82.328,82.328,0,0,0-.684,10.324c0,34.806,11.368,63.022,25.39,63.022s25.39-28.216,25.39-63.022c0-10.79-2.441-22.079-5.808-32.522Z" transform="translate(-272.755 -137.912)" fill="#e6e6e6"/>
  <path id="Path_279" data-name="Path 279" d="M475.121,566.745V639a26.535,26.535,0,0,1-26.534,26.535H317.9A26.535,26.535,0,0,1,291.367,639V573.789a124.952,124.952,0,0,1,183.754-7.044Z" transform="translate(-228.302 -280.107)" fill="#3f3d56"/>
  <ellipse id="Ellipse_36" data-name="Ellipse 36" cx="37.127" cy="37.127" rx="37.127" ry="37.127" transform="translate(117.952 283.657)" fill="#f763ff" opacity="0.2"/>
  <ellipse id="Ellipse_37" data-name="Ellipse 37" cx="29.894" cy="29.894" rx="29.894" ry="29.894" transform="translate(125.184 290.889)" fill="#f763ff"/>
  <path id="Path_280" data-name="Path 280" d="M250.683,547.036l-10.536-13.545,6.127-4.765,4.988,6.414,16.851-17.788,5.635,5.338Z" transform="translate(-99.091 -213.472)" fill="#fff"/>
  <g id="undraw_Ride_till_I_can_no_more_44wq" transform="translate(66.861 86.101)">
    <path id="Path_12" data-name="Path 12" d="M393,556.039l4.305,11.989-2.464,8.6h4.6l1.841-9.779-1.151-14.5Z" transform="translate(-308.807 -425.261)" fill="#3f3d56"/>
    <path id="Path_13" data-name="Path 13" d="M977.566,516.79c-5.293,5.152-5.939,13.072-5.939,13.072s7.934-.433,13.227-5.585,5.939-13.072,5.939-13.072S982.858,511.638,977.566,516.79Z" transform="translate(-766.914 -419.577)" fill="#f2f2f2"/>
    <path id="Path_14" data-name="Path 14" d="M908.247,439.122l-.319-.332c.05-.048,5.029-4.925,6.925-14.038,1.751-8.416,1.157-22.274-11.622-40.5-9.8-13.975-13.767-26.185-11.788-36.29,1.738-8.878,7.651-12.777,7.71-12.816l.249.387c-.058.037-5.815,3.845-7.511,12.532-1.947,9.975,1.995,22.061,11.716,35.923,5.685,8.107,9.47,16.045,11.249,23.6a39.666,39.666,0,0,1,.441,17.287A29.4,29.4,0,0,1,908.247,439.122Z" transform="translate(-704.8 -284.033)" fill="#f2f2f2"/>
    <ellipse id="Ellipse_1" data-name="Ellipse 1" cx="41.417" cy="7.105" rx="41.417" ry="7.105" transform="translate(159.733 48.376)" fill="#f2f2f2"/>
    <path id="Path_15" data-name="Path 15" d="M751.345,315.94c-28.708,0-51.2-3.942-51.2-8.974s22.488-8.974,51.2-8.974,51.2,3.942,51.2,8.974S780.052,315.94,751.345,315.94Zm0-17.487c-27.5,0-50.736,3.9-50.736,8.514s23.234,8.514,50.736,8.514,50.736-3.9,50.736-8.514S778.846,298.452,751.345,298.452Z" transform="translate(-557.902 -255.424)" fill="#f2f2f2"/>
    <path id="Path_16" data-name="Path 16" d="M225.618,348.411l-.319-.332c.063-.061,6.34-6.207,8.732-17.694,2.209-10.607,1.463-28.07-14.638-51.028-6.727-9.593-11.315-18.656-13.636-26.938a40.474,40.474,0,0,1-1.193-18.7c2.183-11.15,9.6-16.046,9.679-16.094l.249.387c-.073.047-7.339,4.85-9.48,15.81-2.456,12.573,2.509,27.8,14.757,45.268,7.152,10.2,11.913,20.184,14.15,29.681a49.869,49.869,0,0,1,.555,21.735C232.049,342.124,225.682,348.35,225.618,348.411Z" transform="translate(-175.883 -193.552)" fill="#f2f2f2"/>
    <ellipse id="Ellipse_2" data-name="Ellipse 2" cx="17.813" cy="17.813" rx="17.813" ry="17.813" transform="translate(16.473 14.133)" fill="#f2f2f2"/>
    <path id="Path_17" data-name="Path 17" d="M168,161.531a24.27,24.27,0,1,1,24.27-24.27A24.27,24.27,0,0,1,168,161.531Zm0-48.08a23.81,23.81,0,1,0,23.81,23.81A23.81,23.81,0,0,0,168,113.451Z" transform="translate(-129.513 -112.991)" fill="#f2f2f2"/>
    <ellipse id="Ellipse_3" data-name="Ellipse 3" cx="14.772" cy="14.772" rx="14.772" ry="14.772" transform="translate(37.327 57.579)" fill="#f2f2f2"/>
    <ellipse id="Ellipse_4" data-name="Ellipse 4" cx="14.772" cy="14.772" rx="14.772" ry="14.772" transform="translate(29.797 108.845)" fill="#f2f2f2"/>
    <path id="Path_18" data-name="Path 18" d="M807.928,703.148H757.849s-1.015-14.888,4.991-15.057,5.329,6.6,12.858-2.707,16.665-8.8,17.849-3.3-2.284,9.9,4.06,8.544S813.088,692.828,807.928,703.148Z" transform="translate(-602.276 -548.096)" fill="#f2f2f2"/>
    <path id="Path_19" data-name="Path 19" d="M862.646,702.86l-.169-.007c.394-9.8,2.447-16.1,4.1-19.658a17.844,17.844,0,0,1,3.541-5.441l.112.126a17.727,17.727,0,0,0-3.506,5.4C865.081,686.822,863.039,693.094,862.646,702.86Z" transform="translate(-682.88 -547.803)" fill="#fff"/>
    <path id="Path_20" data-name="Path 20" d="M941.439,750.011l-.162-.047a26.244,26.244,0,0,1,6.607-10.993l.114.125A26.063,26.063,0,0,0,941.439,750.011Z" transform="translate(-743.547 -594.935)" fill="#fff"/>
    <path id="Path_21" data-name="Path 21" d="M777.486,737.606l-.168-.023a18.426,18.426,0,0,0-1.657-10.77A14.831,14.831,0,0,0,773.046,723l.117-.122a15.013,15.013,0,0,1,2.65,3.864A18.594,18.594,0,0,1,777.486,737.606Z" transform="translate(-614.026 -582.541)" fill="#fff"/>
    <path id="Path_22" data-name="Path 22" d="M159.387,697.987l-.116-.237c-.035-.072-3.495-7.3-1.566-14.434s8.563-11.632,8.629-11.676l.219-.147.115.237c.035.072,3.495,7.3,1.566,14.434s-8.562,11.632-8.629,11.677Zm6.982-25.808c-1.161.845-6.534,5.03-8.219,11.257s.845,12.551,1.423,13.865c1.161-.845,6.534-5.03,8.219-11.257h0c1.686-6.231-.845-12.551-1.423-13.865Z" transform="translate(-139.824 -542.983)" fill="#3f3d56"/>
    <path id="Path_23" data-name="Path 23" d="M126.256,687.236c1.929,7.13,8.535,11.545,8.535,11.545s3.479-7.144,1.551-14.274-8.535-11.545-8.535-11.545S124.327,680.106,126.256,687.236Z" transform="translate(-115.612 -544.114)" fill="#e338bf"/>
    <path id="Path_24" data-name="Path 24" d="M101.616,722.146l-.263-.014c-.08,0-8.082-.5-13.375-5.65s-6-13.138-6.008-13.218L81.949,703l.263.014c.08,0,8.082.5,13.375,5.65s6,13.138,6.008,13.218ZM82.458,703.5c.174,1.426,1.219,8.156,5.841,12.655s11.378,5.363,12.807,5.5c-.174-1.426-1.219-8.156-5.841-12.655h0c-4.625-4.5-11.378-5.363-12.807-5.5Z" transform="translate(-81.949 -567.242)" fill="#3f3d56"/>
    <path id="Path_25" data-name="Path 25" d="M172.271,709.647c-5.292,5.152-5.939,13.072-5.939,13.072s7.934-.433,13.227-5.585,5.939-13.072,5.939-13.072S177.563,704.5,172.271,709.647Z" transform="translate(-146.915 -568.058)" fill="#b82df1"/>
    <ellipse id="Ellipse_5" data-name="Ellipse 5" cx="3.451" cy="3.451" rx="3.451" ry="3.451" transform="translate(15.855 120.768)" fill="#b82df1"/>
    <path id="Path_27" data-name="Path 27" d="M492.672,542.624s-1.538,3.875,1.282,4.3,1.855-4.094,1.855-4.094Z" transform="translate(-397.843 -443.767)" fill="#ffb8b8"/>
    <path id="Path_29" data-name="Path 29" d="M470.9,521.272s-9,.9-7.4,4.531a25.943,25.943,0,0,1,1.6,3.955l7.911,14.111,2.566-2.672s-2.886-6.307-2.886-8.338S469.7,527.3,469.7,527.3l5.238-.428Z" transform="translate(-375.562 -427.328)" fill="#ffb8b8"/>
    <path id="Path_31" data-name="Path 31" d="M500.712,600.9s-2.886-.428-2.138,2.138l1.5,5.131s-1.924,5.238,1.069,4.062,4.917-8.445,4.917-8.445,1.283-5.559,0-5.559-5.345-.855-4.917,0S500.712,600.9,500.712,600.9Z" transform="translate(-402.614 -486.286)" fill="#2f2e41"/>
    <path id="Path_32" data-name="Path 32" d="M365.84,427.344l-4.867-1.673,3.669-.524a29.107,29.107,0,0,0-4.855-6.25l-8.939,1.022,6.748-2.892c-14.489-10.9-34.244,1.166-34.244,1.166l47.4,24.621A58.118,58.118,0,0,0,365.84,427.344Z" transform="translate(-267.806 -343.559)" fill="#b82df1"/>
    <path id="Path_33" data-name="Path 33" d="M683.684,533.431s10.744-7.84,22.069,2.9,20.326,0,20.326,0l7.26,8.131-3.194,3.485,5.517-.871,5.517,7.26s-24.1,12.777-39.2-8.711-35.717-1.162-35.717-1.162Z" transform="translate(-531.812 -434.564)" fill="#b82df1"/>
    <path id="Path_34" data-name="Path 34" d="M446.241,766.786l-2.889,4.271s7.363.69,7.363-.69a9.9,9.9,0,0,1,.517-2.84Z" transform="translate(-360.194 -616.35)" fill="#2f2e41"/>
    <path id="Path_35" data-name="Path 35" d="M585.448,565.357l-15.417,11.965-2.531,8.283,5.062-1.381,5.177-7.938,16.452-8.859Z" transform="translate(-443.155 -435.27)" fill="#3f3d56"/>
    <path id="Path_36" data-name="Path 36" d="M621.774,759.8s-.69,4.6.69,4.6,5.752-4.6,5.752-4.6l-.805-1.956Z" transform="translate(-497.429 -609.469)" fill="#2f2e41"/>
    <path id="Path_37" data-name="Path 37" d="M351.609,625.639l-12.885,8.284-4.372,19.1,4.142-1.381s.46-17.717,8.284-17.948,19.328-.46,20.479-7.133S351.609,625.639,351.609,625.639Z" transform="translate(-276.275 -505.906)" fill="#3f3d56"/>
    <path id="Path_38" data-name="Path 38" d="M335.272,745.318l-.92,1.611.46,4.142s5.983-2.3,5.522-4.142-1.841-1.611-1.841-1.611Z" transform="translate(-276.275 -599.814)" fill="#2f2e41"/>
    <path id="Path_39" data-name="Path 39" d="M641.352,622.42s2.991,10.815,22.319,14.036c0,0,11.39-.115,9.319,8.859s-2.416,9.779-2.416,9.779l4.832.92,1.726-21.054-11.62-14.611Z" transform="translate(-512.635 -503.607)" fill="#3f3d56"/>
    <path id="Path_40" data-name="Path 40" d="M760.683,766.849s-3.336,3.566-2.646,4.027,6.673,1.15,7.133-.23a9.142,9.142,0,0,0,0-3.682Z" transform="translate(-602.399 -616.398)" fill="#2f2e41"/>
    <path id="Path_41" data-name="Path 41" d="M385.271,481.574a16.462,16.462,0,0,1-9.88-3.274c-2.844,1.217-6.139,2.559-9.844,3.96-.557.209-1.121.421-1.7.635q-2.782,1.029-5.842,2.085c-.67.23-1.348.463-2.036.693q-4,1.343-8.419,2.674-1.046.314-2.117.624c-.175.053-.35.1-.527.154-19.567,5.651-28.063-13.921-31.1-24.117-.078-.267-.156-.529-.228-.792a24.331,24.331,0,0,1-.812-7.713c.3-6.348-2.708-12.678-2.708-12.678a92.334,92.334,0,0,1-3.486,15.971c-2.612,8.129-11.615,3.774-10.163,0s-1.452-11.905-1.452-11.905c-4.936-14.809,3.2-16.843,3.2-16.843,25.743-13.567,48.325,20.38,50.375,23.573l28.838-4.146a16.553,16.553,0,1,1,7.9,31.1Z" transform="translate(-244.724 -355.41)" fill="#3f3d56"/>
    <path id="Path_42" data-name="Path 42" d="M259.216,309.276l-1.161-9.583,4.936,6.969Z" transform="translate(-204.912 -230.734)" fill="#3f3d56"/>
    <path id="Path_43" data-name="Path 43" d="M248.216,312.276l-1.162-9.583,4.936,6.969Z" transform="translate(-196.443 -233.044)" fill="#3f3d56"/>
    <path id="Path_46" data-name="Path 46" d="M630.979,647.265s-3.742-.962-4.6.534-.641,6.414-.641,6.521a4.363,4.363,0,0,0,1.71,1.176c.428,0,3.1,4.81,6.735,3.1S630.979,647.265,630.979,647.265Z" transform="translate(-500.598 -524.096)" fill="#2f2e41"/>
    <path id="Path_54" data-name="Path 54" d="M547.774,646.65c-.67.23-1.348.463-2.036.693l-5.886-9.494Z" transform="translate(-434.49 -517.081)" fill="#b82df1"/>
    <path id="Path_55" data-name="Path 55" d="M584.568,639.311c-.557.209-1.121.421-1.7.635l-5.021-8.1Z" transform="translate(-463.746 -512.461)" fill="#b82df1"/>
    <path id="Path_56" data-name="Path 56" d="M501.9,660.8q-1.046.314-2.117.624l-5.934-9.57Z" transform="translate(-399.074 -527.859)" fill="#b82df1"/>
    <path id="Path_57" data-name="Path 57" d="M539.852,744.849" transform="translate(-434.49 -599.46)" fill="#3f3d56"/>
  </g>
</svg>
