<svg xmlns="http://www.w3.org/2000/svg" width="266.923" height="317.373" viewBox="0 0 266.923 317.373">
  <g id="undraw_refreshing_beverage_td3r" transform="translate(0.24)">
    <circle id="Ellipse_9" data-name="Ellipse 9" cx="29.587" cy="29.587" r="29.587" transform="translate(37.257 28.775)" fill="#3f3d56"/>
    <circle id="Ellipse_10" data-name="Ellipse 10" cx="29.587" cy="29.587" r="29.587" transform="translate(206.99 38.637)" fill="#3f3d56"/>
    <path id="Path_58" data-name="Path 58" d="M775.04,216.718A29.585,29.585,0,0,0,748.1,234.074,29.582,29.582,0,0,1,794.712,268.4a29.582,29.582,0,0,0-19.672-51.679Z" transform="translate(-537.944 -179.119)" fill="#b82df1"/>
    <path id="Path_59" data-name="Path 59" d="M443.585,197.718a29.584,29.584,0,0,1,26.939,17.356A29.582,29.582,0,0,0,423.913,249.4a29.582,29.582,0,0,1,19.672-51.679Z" transform="translate(-377.261 -169.981)" fill="#b82df1"/>
    <path id="Path_60" data-name="Path 60" d="M495.489,470.02a76.045,76.045,0,1,1-22.273-54.029A76.364,76.364,0,0,1,495.489,470.02Z" transform="translate(-343 -264.245)" fill="#3f3d56"/>
    <path id="Path_61" data-name="Path 61" d="M548.026,470.019a76.043,76.043,0,0,1-6.857,31.658,90.38,90.38,0,0,1-87.856-105.723,76.364,76.364,0,0,1,94.713,74.065Z" transform="translate(-395.537 -264.245)" fill="#b82df1"/>
    <circle id="Ellipse_11" data-name="Ellipse 11" cx="90.317" cy="90.317" r="90.317" transform="translate(56.462 45.385)" fill="#3f3d56"/>
    <path id="Path_62" data-name="Path 62" d="M657.175,362.218a29.586,29.586,0,0,1,41.328-6.109,29.588,29.588,0,1,0-41.328,6.109Z" transform="translate(-488.448 -223.427)" fill="#fff"/>
    <path id="Path_63" data-name="Path 63" d="M524.175,373.218a29.586,29.586,0,0,1,41.328-6.109,29.588,29.588,0,1,0-41.328,6.109Z" transform="translate(-424.483 -228.717)" fill="#fff"/>
    <circle id="Ellipse_12" data-name="Ellipse 12" cx="10.9" cy="10.9" r="10.9" transform="translate(108.368 104.039)" fill="#3f3d56"/>
    <circle id="Ellipse_13" data-name="Ellipse 13" cx="10.9" cy="10.9" r="10.9" transform="translate(178.961 95.734)" fill="#3f3d56"/>
    <circle id="Ellipse_14" data-name="Ellipse 14" cx="5.71" cy="5.71" r="5.71" transform="translate(147.817 133.107)" fill="#ff6584"/>
    <path id="Path_64" data-name="Path 64" d="M458.61,699.826V674.718h-8.3v25.107a12.46,12.46,0,0,0-8.3,11.746h24.915a12.46,12.46,0,0,0-8.3-11.745Z" transform="translate(-390.728 -399.389)" fill="#3f3d56"/>
    <path id="Path_65" data-name="Path 65" d="M517.61,699.826V674.718h-8.3v25.107a12.461,12.461,0,0,0-8.3,11.746h24.915a12.46,12.46,0,0,0-8.3-11.745Z" transform="translate(-419.104 -399.389)" fill="#3f3d56"/>
    <path id="Path_66" data-name="Path 66" d="M549.627,198.328c-3.763-6.059-6.291-13.175-5.508-20.264s5.427-14.006,12.264-16.038,15.306,2.177,16.594,9.192a57.683,57.683,0,0,1,30.562-25.453c5.975-2.105,13.916-2.583,17.371,2.727,1.71,2.628,1.893,6.2,4.183,8.343,3.591,3.357,9.349.992,14.256,1.279,6.9.4,12.455,6.843,13.325,13.7s-2.168,13.749-6.651,19.01-10.315,9.165-16.067,13" transform="translate(-439.773 -144.282)" fill="#3f3d56"/>
    <path id="Path_67" data-name="Path 67" d="M654.434,441.968c.372-.393.755-.773,1.156-1.136q.266-.241.54-.472.171-.144.346-.285c.2-.162.265-.2.021-.021a22.648,22.648,0,0,1,2.781-1.78q.669-.359,1.362-.673c.109-.049.218-.1.327-.145-.489.218-.106.045.02-.006q.416-.167.837-.318a24.074,24.074,0,0,1,3.2-.9c.5-.1,1-.185,1.507-.265.339-.054-.427.047-.085.012.149-.016.3-.035.448-.051q.448-.047.9-.077a25.1,25.1,0,0,1,3.242-.012c.54.033,1.077.088,1.613.151-.541-.064.079.015.269.046q.443.073.884.162a23.63,23.63,0,0,1,3.111.852q.38.133.755.279c.139.054.277.11.415.166-.07-.028-.455-.2-.065-.025.488.222.972.45,1.446.7a22.838,22.838,0,0,1,2.787,1.776c.269.2-.3-.251-.048-.035.114.1.233.188.348.284q.276.231.544.472c.457.411.895.844,1.316,1.291q.577.613,1.111,1.265c0-.006.4.5.185.226-.181-.227.075.1.115.154q.322.432.626.877a27.192,27.192,0,0,1,1.784,3.029q.377.743.712,1.507c.049.112.219.524.035.075q.075.182.149.365.183.458.354.922a43.441,43.441,0,0,1,1.875,6.979q.17.9.31,1.814.063.406.121.812c0-.007.089.661.042.3-.042-.321.03.242.038.3.157,1.264.282,2.532.383,3.8.2,2.491.3,4.988.379,7.485.192,6.335.356,12.671.534,19.007l1.089,38.807,1.089,38.807.135,4.818a2.336,2.336,0,0,0,4.672,0l-1.118-39.878-1.111-39.61-.559-19.939a126.756,126.756,0,0,0-1.187-15.957c-1.513-9.734-5.91-19.853-15.308-24.273a26.613,26.613,0,0,0-27.333,2.832,21.474,21.474,0,0,0-2.394,2.171,2.336,2.336,0,0,0,3.3,3.3Z" transform="translate(-490.978 -282.246)" fill="#b82df1"/>
    <path id="Path_68" data-name="Path 68" d="M689.6,593.718a2.6,2.6,0,0,0-2.6,2.6l5.19,78.864a2.607,2.607,0,0,0,2.6,2.629h42.563a2.6,2.6,0,0,0,2.6-2.6l5.192-78.931a2.593,2.593,0,0,0-2.6-2.562Z" transform="translate(-508.558 -360.433)" fill="#e6e6e6"/>
    <path id="Path_69" data-name="Path 69" d="M697.512,601.218a2.6,2.6,0,0,0-2.589,2.769l4.772,71.111a2.6,2.6,0,0,0,2.589,2.422h35.182a2.6,2.6,0,0,0,2.589-2.422l4.772-71.111a2.6,2.6,0,0,0-2.589-2.769Z" transform="translate(-512.366 -364.04)" fill="#b82df1"/>
    <path id="Path_70" data-name="Path 70" d="M729.038,624.718A1.039,1.039,0,0,0,728,625.756v5.71a1.04,1.04,0,0,0,1.038,1.038h8.824a1.039,1.039,0,0,0,1.038-1.038v-5.71a1.039,1.039,0,0,0-1.038-1.038Z" transform="translate(-528.277 -375.342)" fill="#e6e6e6"/>
    <path id="Path_71" data-name="Path 71" d="M748.038,653.718A1.039,1.039,0,0,0,747,654.756v5.71a1.039,1.039,0,0,0,1.038,1.038h8.824a1.039,1.039,0,0,0,1.038-1.038v-5.71a1.039,1.039,0,0,0-1.038-1.038Z" transform="translate(-537.415 -389.289)" fill="#e6e6e6"/>
    <path id="Path_72" data-name="Path 72" d="M730.038,677.718A1.039,1.039,0,0,0,729,678.756v5.71a1.039,1.039,0,0,0,1.038,1.038h8.824a1.039,1.039,0,0,0,1.038-1.038v-5.71a1.039,1.039,0,0,0-1.038-1.038Z" transform="translate(-528.758 -400.832)" fill="#e6e6e6"/>
    <path id="Path_73" data-name="Path 73" d="M407.53,578.862c2.7.9,4.6,3.194,6.186,5.446,1.631,2.322,3.127,4.843,5.356,6.657a8.753,8.753,0,0,0,6.892,2.072,5.585,5.585,0,0,0,4.889-4.6c.49-3.32-1.834-6.392-3.872-8.753l-.551,1.329c3.247.35,6.07,2.2,9.044,3.393,2.849,1.142,6.219,1.765,9.065.276a8.222,8.222,0,0,0,4.007-5.795,11.919,11.919,0,0,0-1.123-7.588c-1.515-3.1-4-5.6-6.409-8.012l-.758,1.3c3.583.538,7.578,1.04,10.686-1.263a6.335,6.335,0,0,0,2.5-3.647,7.046,7.046,0,0,0-.761-4.773c-1.635-3.184-4.72-5.428-7.486-7.563a109.141,109.141,0,0,0-20.844-12.671c-.9-.42-1.695.922-.786,1.345A109.749,109.749,0,0,1,441.611,546.6a50.028,50.028,0,0,1,7.877,6.5c1.928,2.122,3.685,5.368,1.579,7.992-2.477,3.086-6.96,2.512-10.4,2a.786.786,0,0,0-.758,1.3c3.592,3.593,7.857,7.907,7.233,13.438a7.039,7.039,0,0,1-3.1,5.347c-2.536,1.507-5.708.732-8.263-.311-3.1-1.265-5.959-3.04-9.355-3.407-.732-.079-.944.873-.551,1.329,1.648,1.909,3.624,4.394,3.478,7.071a4.133,4.133,0,0,1-4.17,3.707c-5.328.322-8.018-5.225-10.719-8.863-1.71-2.3-3.738-4.417-6.525-5.341-.953-.316-1.362,1.187-.414,1.5Z" transform="translate(-373.891 -331.998)" fill="#b82df1"/>
  </g>
</svg>
