<svg xmlns="http://www.w3.org/2000/svg" width="59.152" height="59.152" viewBox="0 0 59.152 59.152">
  <path id="_016-tiktok" data-name="016-tiktok" d="M29.576,0A29.576,29.576,0,1,0,59.152,29.576,29.579,29.579,0,0,0,29.576,0ZM44.414,22.63v4a13.974,13.974,0,0,1-8.551-2.906l.028,12.326a10.325,10.325,0,0,1-3.1,7.348,10.541,10.541,0,0,1-5.888,2.945,10.854,10.854,0,0,1-1.59.117,10.576,10.576,0,0,1-6.482-2.192,10.754,10.754,0,0,1-1-.87,10.364,10.364,0,0,1-.468-14.291,10.575,10.575,0,0,1,7.946-3.554,10.854,10.854,0,0,1,1.59.118v5.6a4.986,4.986,0,1,0,3.429,4.737l.007-8.254V12.688h5.515A8.537,8.537,0,0,0,44.4,21.145s.017,0,.016,0V22.63Z" fill="#fff"/>
</svg>
