<svg xmlns="http://www.w3.org/2000/svg" width="59.152" height="59.152" viewBox="0 0 59.152 59.152">
  <path id="_002-twitter" data-name="002-twitter" d="M29.576,0A29.576,29.576,0,1,0,59.152,29.576,29.579,29.579,0,0,0,29.576,0Zm3.816,46.278c-7.278.125-10.035-5.184-10.035-8.922V26.441H19.975V22.125c5.069-1.828,6.287-6.4,6.574-9a.264.264,0,0,1,.241-.25h4.892v8.511h6.686v5.059H31.659v10.4c.022,1.414.541,3.364,3.215,3.293a7.861,7.861,0,0,0,2.7-.576l1.607,4.763C38.574,45.209,35.847,46.236,33.392,46.278Zm0,0" fill="#790ABF"/>
</svg>
