<svg id="youtube" xmlns="http://www.w3.org/2000/svg" width="59.152" height="59.152" viewBox="0 0 59.152 59.152">
  <path id="Path_281" data-name="Path 281" d="M224.113,219.121l9.621-5.541-9.621-5.541Zm0,0" transform="translate(-198.221 -184.004)" fill="#9715bf"/>
  <path id="Path_282" data-name="Path 282" d="M29.576,0A29.576,29.576,0,1,0,59.152,29.576,29.579,29.579,0,0,0,29.576,0ZM48.057,29.606s0,6-.761,8.891a4.631,4.631,0,0,1-3.258,3.257c-2.892.761-14.462.761-14.462.761s-11.539,0-14.462-.792a4.632,4.632,0,0,1-3.258-3.258c-.761-2.862-.761-8.89-.761-8.89s0-6,.761-8.89A4.725,4.725,0,0,1,15.114,17.4c2.892-.761,14.462-.761,14.462-.761s11.569,0,14.462.792A4.632,4.632,0,0,1,47.3,20.686c.792,2.892.761,8.92.761,8.92Zm0,0" fill="#790ABF"/>
</svg>
